<?xml version="1.0" encoding="UTF-8"?> <svg xmlns="http://www.w3.org/2000/svg" width="49" height="48" viewBox="0 0 49 48" fill="none"><rect x="1.67554" y="1" width="45.9995" height="46" rx="3" stroke="#E1E6EE" stroke-width="2"></rect><path d="M31.4955 26.5114C30.7727 25.7978 29.8703 25.7978 29.1521 26.5114C28.6043 27.0547 28.0564 27.5979 27.5178 28.1504C27.3705 28.3023 27.2462 28.3345 27.0666 28.2333C26.7121 28.0399 26.3346 27.8834 25.9939 27.6716C24.4056 26.6726 23.0751 25.3881 21.8965 23.9425C21.3118 23.2243 20.7916 22.4555 20.4279 21.59C20.3543 21.415 20.3681 21.2999 20.5108 21.1572C21.0586 20.6278 21.5927 20.0845 22.1313 19.5413C22.8817 18.7862 22.8817 17.9023 22.1267 17.1427C21.6986 16.7099 21.2704 16.2864 20.8423 15.8536C20.4003 15.4116 19.9629 14.9651 19.5164 14.5277C18.7936 13.8233 17.8912 13.8233 17.173 14.5323C16.6206 15.0756 16.0911 15.6326 15.5295 16.1667C15.0092 16.6593 14.7468 17.2624 14.6916 17.9668C14.6041 19.1131 14.8849 20.195 15.2809 21.2493C16.0911 23.4315 17.3249 25.3697 18.8212 27.1468C20.8423 29.5499 23.2547 31.4513 26.0768 32.8233C27.3474 33.4402 28.6641 33.9144 30.0959 33.9926C31.0811 34.0479 31.9374 33.7993 32.6234 33.0304C33.093 32.5056 33.6224 32.0268 34.1196 31.525C34.8563 30.7792 34.8609 29.8768 34.1289 29.1402C33.2541 28.2609 32.3748 27.3862 31.4955 26.5114Z" fill="#36E28F"></path></svg> 