<?xml version="1.0" encoding="UTF-8"?> <svg xmlns="http://www.w3.org/2000/svg" width="66" height="67" viewBox="0 0 66 67" fill="none"><path fill-rule="evenodd" clip-rule="evenodd" d="M0.324707 33.5L32.9194 0.847561L65.5141 33.5L46.4939 52.5539L46.4939 46.0892L48.4358 46.0892L61.0027 33.5L32.9194 5.36693L4.83609 33.5L17.403 46.0892L19.3449 46.0892L19.3449 52.5539L0.324707 33.5Z" fill="#3A86B7"></path><path d="M33.7236 21.7247L26.3866 17.8477V52.8403H33.7236V21.7247Z" fill="#2B2D42"></path><path d="M22.0723 26.0911L23.5078 24.8779V52.8401H22.0723V26.0911Z" fill="#3A86B7"></path><path d="M23.8384 24.7158L25.2739 23.4402V52.8404H23.8384V24.7158Z" fill="#3A86B7"></path><path d="M20.3247 27.4378L21.7602 26.2563V52.8401H20.3247V27.4378Z" fill="#3A86B7"></path><path d="M39.3164 51.2422L44.9225 51.8128V52.84H39.3164V51.2422Z" fill="#2B2D42"></path><path d="M39.3164 49.325L44.899 49.8956V50.9228L39.3164 50.4092V49.325Z" fill="#2B2D42"></path><path d="M39.3164 33.8477L44.899 34.4183V35.4455L39.3164 34.9319V33.8477Z" fill="#2B2D42"></path><path d="M39.3164 35.7651L44.899 36.3358V37.363L39.3164 36.8494V35.7651Z" fill="#2B2D42"></path><path d="M39.3164 37.8208L44.899 38.3915V39.4186L39.3164 38.905V37.8208Z" fill="#2B2D42"></path><path d="M39.3164 39.738L44.899 40.3087V41.3359L39.3164 40.8223V39.738Z" fill="#2B2D42"></path><path d="M39.3164 41.6555L44.899 42.2262V43.2534L39.3164 42.7398V41.6555Z" fill="#2B2D42"></path><path d="M39.3164 43.5725L44.899 44.1432V45.1703L39.3164 44.6568V43.5725Z" fill="#2B2D42"></path><path d="M39.3164 45.4905L44.899 46.0611V47.0883L39.3164 46.5747V45.4905Z" fill="#2B2D42"></path><path d="M39.3164 47.4077L44.899 47.9784V49.0056L39.3164 48.492V47.4077Z" fill="#2B2D42"></path><path d="M39.3164 51.2422L35.1694 51.8128V52.84H39.3164V51.2422Z" fill="#3A86B7"></path><path d="M39.3164 49.325L35.1694 49.8956V50.9228L39.3164 50.4092V49.325Z" fill="#3A86B7"></path><path d="M39.3164 33.9856L35.1694 34.5563V35.5834L39.3164 35.0698V33.9856Z" fill="#3A86B7"></path><path d="M39.3164 35.9033L35.1694 36.474V37.5012L39.3164 36.9876V35.9033Z" fill="#3A86B7"></path><path d="M39.3164 37.8208L35.1694 38.3915V39.4186L39.3164 38.905V37.8208Z" fill="#3A86B7"></path><path d="M39.3164 39.738L35.1694 40.3087V41.3359L39.3164 40.8223V39.738Z" fill="#3A86B7"></path><path d="M39.3164 41.6555L35.1694 42.2262V43.2534L39.3164 42.7398V41.6555Z" fill="#3A86B7"></path><path d="M39.3164 43.5725L35.1694 44.1432V45.1703L39.3164 44.6568V43.5725Z" fill="#3A86B7"></path><path d="M39.3164 45.4905L35.1694 46.0611V47.0883L39.3164 46.5747V45.4905Z" fill="#3A86B7"></path><path d="M39.3164 47.4077L35.1694 47.9784V49.0056L39.3164 48.492V47.4077Z" fill="#3A86B7"></path></svg> 