<?xml version="1.0" encoding="UTF-8"?> <svg xmlns="http://www.w3.org/2000/svg" width="161" height="67" viewBox="0 0 161 67" fill="none"><path fill-rule="evenodd" clip-rule="evenodd" d="M0.324707 33.5L32.9194 0.847561L65.5141 33.5L46.4939 52.5539L46.4939 46.0892L48.4358 46.0892L61.0027 33.5L32.9194 5.36693L4.83609 33.5L17.403 46.0892L19.3449 46.0892L19.3449 52.5539L0.324707 33.5Z" fill="#3A86B7"></path><path d="M33.7236 21.7247L26.3866 17.8477V52.8403H33.7236V21.7247Z" fill="#2B2D42"></path><path d="M22.0723 26.0911L23.5078 24.8779V52.8401H22.0723V26.0911Z" fill="#3A86B7"></path><path d="M23.8384 24.7158L25.2739 23.4402V52.8404H23.8384V24.7158Z" fill="#3A86B7"></path><path d="M20.3247 27.4378L21.7602 26.2563V52.8401H20.3247V27.4378Z" fill="#3A86B7"></path><path d="M39.3164 51.2422L44.9225 51.8128V52.84H39.3164V51.2422Z" fill="#2B2D42"></path><path d="M39.3164 49.325L44.899 49.8956V50.9228L39.3164 50.4092V49.325Z" fill="#2B2D42"></path><path d="M39.3164 33.8477L44.899 34.4183V35.4455L39.3164 34.9319V33.8477Z" fill="#2B2D42"></path><path d="M39.3164 35.7651L44.899 36.3358V37.363L39.3164 36.8494V35.7651Z" fill="#2B2D42"></path><path d="M39.3164 37.8208L44.899 38.3915V39.4186L39.3164 38.905V37.8208Z" fill="#2B2D42"></path><path d="M39.3164 39.738L44.899 40.3087V41.3359L39.3164 40.8223V39.738Z" fill="#2B2D42"></path><path d="M39.3164 41.6555L44.899 42.2262V43.2534L39.3164 42.7398V41.6555Z" fill="#2B2D42"></path><path d="M39.3164 43.5725L44.899 44.1432V45.1703L39.3164 44.6568V43.5725Z" fill="#2B2D42"></path><path d="M39.3164 45.4905L44.899 46.0611V47.0883L39.3164 46.5747V45.4905Z" fill="#2B2D42"></path><path d="M39.3164 47.4077L44.899 47.9784V49.0056L39.3164 48.492V47.4077Z" fill="#2B2D42"></path><path d="M39.3164 51.2422L35.1694 51.8128V52.84H39.3164V51.2422Z" fill="#3A86B7"></path><path d="M39.3164 49.325L35.1694 49.8956V50.9228L39.3164 50.4092V49.325Z" fill="#3A86B7"></path><path d="M39.3164 33.9856L35.1694 34.5563V35.5834L39.3164 35.0698V33.9856Z" fill="#3A86B7"></path><path d="M39.3164 35.9033L35.1694 36.474V37.5012L39.3164 36.9876V35.9033Z" fill="#3A86B7"></path><path d="M39.3164 37.8208L35.1694 38.3915V39.4186L39.3164 38.905V37.8208Z" fill="#3A86B7"></path><path d="M39.3164 39.738L35.1694 40.3087V41.3359L39.3164 40.8223V39.738Z" fill="#3A86B7"></path><path d="M39.3164 41.6555L35.1694 42.2262V43.2534L39.3164 42.7398V41.6555Z" fill="#3A86B7"></path><path d="M39.3164 43.5725L35.1694 44.1432V45.1703L39.3164 44.6568V43.5725Z" fill="#3A86B7"></path><path d="M39.3164 45.4905L35.1694 46.0611V47.0883L39.3164 46.5747V45.4905Z" fill="#3A86B7"></path><path d="M39.3164 47.4077L35.1694 47.9784V49.0056L39.3164 48.492V47.4077Z" fill="#3A86B7"></path><path d="M79.5683 15.4185C81.911 15.4185 83.7542 15.9793 85.0979 17.101C86.4415 18.2227 87.1133 19.7671 87.1133 21.7344C87.1133 23.7017 86.4415 25.2461 85.0979 26.3678C83.7542 27.4895 81.911 28.0503 79.5683 28.0503H75.0981V33.5379H72.5142V15.4185H79.5683ZM79.4907 25.7983C81.1272 25.7983 82.3761 25.4532 83.2374 24.7629C84.0987 24.0554 84.5294 23.0459 84.5294 21.7344C84.5294 20.4229 84.0987 19.422 83.2374 18.7317C82.3761 18.0242 81.1272 17.6705 79.4907 17.6705H75.0981V25.7983H79.4907Z" fill="#2B2D42"></path><path d="M103.834 31.286V33.5379H90.7076V15.4185H103.472V17.6705H93.2915V23.2357H102.361V25.4359H93.2915V31.286H103.834Z" fill="#2B2D42"></path><path d="M123.447 15.4185V33.5379H120.863V25.4618H110.476V33.5379H107.892V15.4185H110.476V23.2098H120.863V15.4185H123.447Z" fill="#2B2D42"></path><path d="M141.517 17.6705H135.315V33.5379H132.783V17.6705H126.607V15.4185H141.517V17.6705Z" fill="#2B2D42"></path><path d="M144.657 15.4185H147.215V29.3964L157.913 15.4185H160.29V33.5379H157.758V19.5859L147.034 33.5379H144.657V15.4185Z" fill="#2B2D42"></path><path d="M72.5142 43.4805H73.6043V46.2718H77.0338V43.4805H78.124V50.0556H77.0338V47.3015H73.6043V50.0556H72.5142V43.4805Z" fill="#868994"></path><path d="M85.6832 46.8053C85.6832 46.8963 85.6756 47.0162 85.6604 47.1651H80.7774C80.8456 47.744 81.0765 48.2113 81.4701 48.5669C81.8714 48.9143 82.3672 49.088 82.9577 49.088C83.677 49.088 84.2561 48.8233 84.6952 48.294L85.2971 49.0632C85.0245 49.4105 84.6838 49.6752 84.275 49.8571C83.8738 50.0391 83.4233 50.1301 82.9237 50.1301C82.2878 50.1301 81.7237 49.9895 81.2317 49.7083C80.7396 49.4188 80.3573 49.0177 80.0847 48.5049C79.8197 47.9921 79.6873 47.4132 79.6873 46.7681C79.6873 46.1312 79.816 45.5564 80.0734 45.0436C80.3383 44.5309 80.6979 44.1339 81.1522 43.8527C81.614 43.5632 82.1326 43.4185 82.7079 43.4185C83.2833 43.4185 83.7943 43.5632 84.241 43.8527C84.6952 44.1339 85.0472 44.5309 85.2971 45.0436C85.5545 45.5564 85.6832 46.1436 85.6832 46.8053ZM82.7079 44.4233C82.1855 44.4233 81.7465 44.597 81.3906 44.9444C81.0424 45.2918 80.838 45.7466 80.7774 46.309H84.6384C84.5779 45.7549 84.3697 45.3042 84.0138 44.9568C83.6656 44.6012 83.2303 44.4233 82.7079 44.4233Z" fill="#868994"></path><path d="M93.3954 49.0135V51.5816H92.3734V50.0556H87.3427V51.5816H86.3093V49.0135H86.6273C87.0134 48.9887 87.2784 48.691 87.4222 48.1203C87.566 47.5496 87.6645 46.7432 87.7175 45.7012L87.8083 43.4805H92.4756V49.0135H93.3954ZM88.7168 45.788C88.6865 46.6151 88.6221 47.3015 88.5237 47.8474C88.4329 48.385 88.2625 48.7737 88.0127 49.0135H91.3854V44.5226H88.7736L88.7168 45.788Z" fill="#868994"></path><path d="M98.9151 46.644C99.6948 46.859 100.085 47.3925 100.085 48.2444C100.085 48.8233 99.8841 49.2699 99.4829 49.5842C99.0892 49.8985 98.4987 50.0556 97.7113 50.0556H94.8156V43.4805H97.6091C98.3208 43.4805 98.8772 43.6294 99.2784 43.9271C99.6797 44.2166 99.8803 44.6301 99.8803 45.1677C99.8803 45.5151 99.7932 45.8169 99.6191 46.0733C99.4526 46.3214 99.2179 46.5117 98.9151 46.644ZM95.883 46.309H97.5183C97.9347 46.309 98.2488 46.2263 98.4608 46.0609C98.6804 45.8955 98.7901 45.6557 98.7901 45.3414C98.7901 44.7128 98.3662 44.3985 97.5183 44.3985H95.883V46.309ZM97.6318 49.1376C98.0861 49.1376 98.4268 49.059 98.6539 48.9019C98.881 48.7447 98.9945 48.5008 98.9945 48.1699C98.9945 47.8308 98.8886 47.5786 98.6766 47.4132C98.4722 47.2478 98.1466 47.1651 97.7 47.1651H95.883V49.1376H97.6318Z" fill="#868994"></path><path d="M101.791 43.4805H102.881V48.2692L106.572 43.4805H107.56V50.0556H106.47V45.2669L102.79 50.0556H101.791V43.4805Z" fill="#868994"></path><path d="M115.149 47.2767H113.98V50.0556H112.89V47.2767H111.72L110.062 50.0556H108.767L110.834 46.6564L108.926 43.4805H110.085L111.709 46.2594H112.89V43.4805H113.98V46.2594H115.161L116.785 43.4805H117.954L116.046 46.6688L118.113 50.0556H116.819L115.149 47.2767Z" fill="#868994"></path><path d="M119.313 43.4805H120.403V48.2692L124.094 43.4805H125.082V50.0556H123.991V45.2669L120.312 50.0556H119.313V43.4805Z" fill="#868994"></path><path d="M134.136 43.4805V50.0556H133.148V45.2545L130.9 49.3113H130.423L128.197 45.2421V50.0556H127.198V43.4805H128.322L130.684 47.9218L133.114 43.4805H134.136Z" fill="#868994"></path><path d="M138.836 50.1301C138.238 50.1301 137.7 49.9853 137.223 49.6959C136.746 49.4064 136.371 49.0094 136.099 48.5049C135.834 47.9921 135.701 47.4132 135.701 46.7681C135.701 46.123 135.834 45.5481 136.099 45.0436C136.371 44.5309 136.746 44.1339 137.223 43.8527C137.7 43.5632 138.238 43.4185 138.836 43.4185C139.434 43.4185 139.967 43.5632 140.437 43.8527C140.914 44.1339 141.285 44.5309 141.55 45.0436C141.822 45.5481 141.959 46.123 141.959 46.7681C141.959 47.4132 141.822 47.9921 141.55 48.5049C141.285 49.0094 140.914 49.4064 140.437 49.6959C139.967 49.9853 139.434 50.1301 138.836 50.1301ZM138.836 49.088C139.222 49.088 139.566 48.9929 139.869 48.8026C140.179 48.6041 140.422 48.3312 140.596 47.9838C140.77 47.6282 140.857 47.2229 140.857 46.7681C140.857 46.3132 140.77 45.9121 140.596 45.5647C140.422 45.209 140.179 44.9361 139.869 44.7459C139.566 44.5557 139.222 44.4606 138.836 44.4606C138.45 44.4606 138.101 44.5557 137.791 44.7459C137.488 44.9361 137.246 45.209 137.064 45.5647C136.89 45.9121 136.803 46.3132 136.803 46.7681C136.803 47.2229 136.89 47.6282 137.064 47.9838C137.246 48.3312 137.488 48.6041 137.791 48.8026C138.101 48.9929 138.45 49.088 138.836 49.088Z" fill="#868994"></path><path d="M146.156 50.1301C145.543 50.1301 144.994 49.9853 144.509 49.6959C144.032 49.4064 143.658 49.0094 143.385 48.5049C143.113 47.9921 142.976 47.4132 142.976 46.7681C142.976 46.123 143.113 45.5481 143.385 45.0436C143.658 44.5309 144.032 44.1339 144.509 43.8527C144.994 43.5632 145.543 43.4185 146.156 43.4185C146.701 43.4185 147.186 43.5384 147.609 43.7782C148.041 44.0181 148.374 44.3654 148.609 44.8203L147.78 45.4034C147.591 45.0891 147.356 44.8534 147.076 44.6963C146.796 44.5391 146.485 44.4606 146.145 44.4606C145.751 44.4606 145.395 44.5557 145.077 44.7459C144.767 44.9361 144.521 45.209 144.339 45.5647C144.165 45.9121 144.078 46.3132 144.078 46.7681C144.078 47.2312 144.165 47.6406 144.339 47.9962C144.521 48.3436 144.767 48.6124 145.077 48.8026C145.395 48.9929 145.751 49.088 146.145 49.088C146.485 49.088 146.796 49.0094 147.076 48.8523C147.356 48.6951 147.591 48.4594 147.78 48.1451L148.609 48.7158C148.374 49.1707 148.041 49.5222 147.609 49.7703C147.186 50.0101 146.701 50.1301 146.156 50.1301Z" fill="#868994"></path><path d="M154.428 44.5226H152.225V50.0556H151.135V44.5226H148.932V43.4805H154.428V44.5226Z" fill="#868994"></path><path d="M158.325 45.7136C159.09 45.7218 159.673 45.9121 160.074 46.2842C160.475 46.6564 160.676 47.1816 160.676 47.8598C160.676 48.5711 160.456 49.1211 160.017 49.5098C159.586 49.8902 158.965 50.0763 158.155 50.068L155.543 50.0556V43.4805H156.633V45.7012L158.325 45.7136ZM158.064 49.1624C158.556 49.1707 158.927 49.0632 159.177 48.8399C159.434 48.6165 159.563 48.2857 159.563 47.8474C159.563 47.4173 159.438 47.103 159.188 46.9045C158.946 46.706 158.571 46.6026 158.064 46.5944L156.633 46.5696V49.15L158.064 49.1624Z" fill="#868994"></path></svg> 