<?xml version="1.0" encoding="UTF-8"?> <svg xmlns="http://www.w3.org/2000/svg" width="20" height="14" viewBox="0 0 20 14" fill="none"><path d="M19.2818 2.15692C19.055 1.3135 18.39 0.64864 17.5467 0.421532C16.0061 0 9.84351 0 9.84351 0C9.84351 0 3.68119 0 2.14058 0.40555C1.3135 0.632418 0.632298 1.31362 0.40543 2.15692C0 3.69741 0 6.89219 0 6.89219C0 6.89219 0 10.1031 0.40543 11.6274C0.632538 12.4708 1.29728 13.1356 2.1407 13.3627C3.69741 13.7844 9.84375 13.7844 9.84375 13.7844C9.84375 13.7844 16.0061 13.7844 17.5467 13.3788C18.3901 13.1518 19.055 12.487 19.2821 11.6437C19.6874 10.1031 19.6874 6.90841 19.6874 6.90841C19.6874 6.90841 19.7036 3.69741 19.2818 2.15692ZM7.88149 9.84363V3.94074L13.006 6.89219L7.88149 9.84363Z" fill="#3A86B7"></path></svg> 