<?xml version="1.0" encoding="UTF-8"?> <svg xmlns="http://www.w3.org/2000/svg" width="19" height="11" viewBox="0 0 19 11" fill="none"><path d="M15.7019 6.25558C15.4021 5.87377 15.4878 5.7039 15.7019 5.3626C15.7058 5.3587 18.1809 1.90987 18.4359 0.74026L18.4374 0.73948C18.5642 0.313247 18.4374 0 17.8247 0H15.7969C15.2807 0 15.0427 0.268831 14.9152 0.56961C14.9152 0.56961 13.8828 3.06156 12.4223 4.67688C11.9509 5.14364 11.733 5.29325 11.4757 5.29325C11.349 5.29325 11.1519 5.14364 11.1519 4.7174V0.73948C11.1519 0.228312 11.0074 0 10.5801 0H7.3917C7.06792 0 6.8755 0.238442 6.8755 0.46052C6.8755 0.945195 7.60575 1.05662 7.68148 2.42026V5.37896C7.68148 6.02727 7.5648 6.14649 7.30592 6.14649C6.61663 6.14649 4.94361 3.64442 3.95217 0.780779C3.75203 0.225195 3.55652 0.000779164 3.03646 0.000779164H1.00798C0.429186 0.000779164 0.3125 0.26961 0.3125 0.57039C0.3125 1.10182 1.0018 3.74416 3.51788 7.23506C5.19476 9.61792 7.5563 10.9091 9.70455 10.9091C10.9958 10.9091 11.1535 10.6223 11.1535 10.1291C11.1535 7.85221 11.0368 7.63714 11.6836 7.63714C11.9834 7.63714 12.4996 7.78675 13.7051 8.9361C15.0829 10.299 15.3093 10.9091 16.0805 10.9091H18.1083C18.6863 10.9091 18.9791 10.6223 18.8107 10.0566C18.4251 8.86675 15.8194 6.41922 15.7019 6.25558Z" fill="#3A86B7"></path></svg> 